<mxfile host="app.diagrams.net" modified="2024-04-13T18:02:59.918Z" agent="Mozilla/5.0 (Windows NT 10.0; Win64; x64) AppleWebKit/537.36 (KHTML, like Gecko) Chrome/121.0.0.0 Safari/537.36 OPR/107.0.0.0" version="24.2.5" etag="h9YKM1CQSy7OgOnwZwiL" type="github">
  <diagram name="Page-1" id="qdWqP0T_bZVJZ8Bbg4Ss">
    <mxGraphModel>
      <root>
        <mxCell id="0" />
        <mxCell id="1" parent="0" />
      </root>
    </mxGraphModel>
  </diagram>
</mxfile>
